PathFileType	4	(X/Y/Z)	RBDS002\RBDS002runT45.trc
DataRate	CameraRate	NumFrames	NumMarkers	Units	OrigDataRate	OrigDataStartFrame	OrigNumFrames
150.000000	150.000000	4	33	mm	150.000000	562	4500
Frame#	Time	L.ASIS			L.Heel.Bottom			L.Heel.Lateral			L.Heel.Top			L.Iliac.Crest			L.MT1			L.MT5			L.PSIS			L.Shank.Bottom.Lateral			L.Shank.Bottom.Medial			L.Shank.Top.Lateral			L.Shank.Top.Medial			L.Thigh.Bottom.Lateral			L.Thigh.Bottom.Medial			L.Thigh.Top.Lateral			L.Thigh.Top.Medial			R.ASIS			R.ASY			R.Heel.Bottom			R.Heel.Lateral			R.Heel.Top			R.Iliac.Crest			R.MT1			R.MT5			R.PSIS			R.Shank.Bottom.Lateral			R.Shank.Bottom.Medial			R.Shank.Top.Lateral			R.Shank.Top.Medial			R.Thigh.Bottom.Lateral			R.Thigh.Bottom.Medial			R.Thigh.Top.Lateral			R.Thigh.Top.Medial			
		X1	Y1	Z1	X2	Y2	Z2	X3	Y3	Z3	X4	Y4	Z4	X5	Y5	Z5	X6	Y6	Z6	X7	Y7	Z7	X8	Y8	Z8	X9	Y9	Z9	X10	Y10	Z10	X11	Y11	Z11	X12	Y12	Z12	X13	Y13	Z13	X14	Y14	Z14	X15	Y15	Z15	X16	Y16	Z16	X17	Y17	Z17	X18	Y18	Z18	X19	Y19	Z19	X20	Y20	Z20	X21	Y21	Z21	X22	Y22	Z22	X23	Y23	Z23	X24	Y24	Z24	X25	Y25	Z25	X26	Y26	Z26	X27	Y27	Z27	X28	Y28	Z28	X29	Y29	Z29	X30	Y30	Z30	X31	Y31	Z31	X32	Y32	Z32	X33	Y33	Z33	

563	3.746666666666667	2389.198108241433	930.349610198163	999.5587642809168	1949.466976406071	623.6879392766097	1088.874283430996	1946.860957089703	598.8823416626643	1037.205041014434	1993.570637514239	598.4347339167493	1080.489377774317	2320.59317384944	1021.589750581456	940.1316738011443	1897.274060573494	394.7826576482215	1089.29617464322	1887.559165410158	449.4914736528544	987.7150238742021	2206.032243133377	988.2890143494274	1042.752813716843	2052.396127414979	523.1568633296913	1003.77352172242	2065.161279833654	559.8152346152034	1037.783328495441	2129.685144505354	512.7499053589372	981.4074680397662	2146.79040134509	549.3086809750354	1016.397118610084	2351.262809640633	499.2915878044352	949.2818166467387	2315.71540573115	505.8121634517803	1016.083139275322	2314.730974453785	601.595049873228	938.8195047594444	2277.358987499224	596.9427005548046	996.4045020257419	2386.796392897983	966.2399614703845	1205.810369920147	2356.771634664691	85.68720931961114	1141.464529245862	2165.886190338648	49.0813251181032	1132.886533439283	2188.89991872302	61.82424192202014	1172.818166516593	2185.372648439555	97.31571984792764	1131.467188764155	2296.541715805477	1023.757919262308	1262.679237353768	2402.472694883463	51.86003375610081	1103.83847473011	2361.993730059223	45.97143465204984	1211.846446088045	2200.217897431869	1000.747674197241	1130.871206907951	2289.042813564768	169.8957394027735	1196.358240282812	2251.409916718321	195.4032450408144	1166.099065931593	2316.845121313866	242.8891585253884	1219.882620806434	2282.197070107763	266.9231145603916	1185.330911529593	2408.235035792651	558.2174412725423	1244.203945805312	2358.494467279176	543.6994533732397	1191.307239738291	2354.555564954509	652.2667764763859	1266.859349909227	2304.482437467474	635.2241188207422	1220.633922847852	
564	3.753333333333333	2386.870968979099	929.6391662030478	999.7721251311007	1961.483877889744	613.4004955393088	1084.150289067524	1960.69676190986	587.4134804311686	1033.129393022538	2006.759260142692	590.3335701132431	1076.898567000728	2315.944065632757	1020.738057341132	940.2793905026937	1920.8132569779	382.8653151131343	1089.805704894706	1909.52932055496	434.4849208333119	986.7881808581036	2203.937963182816	988.6531872378812	1043.234582694734	2069.952798034223	516.1455368270748	1002.348907255267	2081.378308653595	553.6996776554936	1035.776125239108	2147.543313656296	508.0173856407321	980.2400748888666	2163.289766819237	545.5978102446197	1014.70013028098	2368.871002880113	501.8127023143641	948.7298641830331	2332.273478828655	507.1819476762889	1015.161307875157	2326.78727120609	601.8558818579835	937.6934930827593	2288.876299002541	594.9106208164128	994.5717327570235	2383.959017111041	964.8081462970276	1206.769284228601	2326.276091823361	85.82609387871244	1142.344670029635	2135.467958123652	50.08983924299231	1133.522235588492	2158.499048467315	62.60254676133196	1173.519143807912	2155.104549321913	98.22126299910798	1132.302884113059	2293.778075069033	1022.888659407607	1263.273966458182	2371.803622219194	52.24413726870836	1104.883580355133	2331.255710057968	45.7636850308558	1212.516643105007	2198.225123888558	1001.030709258099	1131.002164765199	2261.47090373027	169.7775298075499	1197.080003814016	2224.647842102995	196.5610544788522	1167.04702259331	2291.833599624233	241.762712268287	1220.579635874369	2257.874330991989	267.0066165561212	1186.177693754418	2393.64852917011	554.0243857898702	1244.50391551634	2343.438514662954	541.14937772963	1191.514240957127	2343.017999156769	649.7244062357439	1267.088364508287	2292.617388082393	634.3997984149643	1220.579854524281	
565	3.76	2384.725423072057	930.0742189451197	999.6347559216066	1972.475385008294	601.2843271519795	1079.191777216162	1973.823989367239	574.2193527855987	1028.865489441431	2018.92706372859	580.849719150601	1073.05047884636	2311.3944301282	1021.025922999344	940.4812205998714	1945.117756553322	369.6685790698454	1090.392636745404	1932.175160787233	417.8748210445079	985.8878256911731	2202.131355451752	989.6298045176769	1043.864259177543	2087.057927852231	508.4930467081479	1000.971522586544	2096.773327917188	547.0153852775352	1033.758723199229	2164.912395280628	503.2844073614511	979.1685024593247	2178.918811343083	541.9873164256795	1013.05704278739	2386.513245973254	506.1763418099421	948.4953149431473	2348.892030432807	509.8068328116653	1014.427250765871	2338.881007858448	603.6550079517432	936.7989867857424	2300.549270591947	594.2718733706664	992.909040463119	2381.562805929583	963.9975864674366	1207.591002886152	2295.714503737076	85.9192938837963	1143.341178718377	2104.8644948118	51.21182017187751	1134.259497028674	2127.928341511552	63.38632281687504	1174.345031543486	2124.6768499712	99.24146829639987	1133.328572947889	2290.982846022923	1022.907766068275	1263.864021116367	2341.044565648829	52.43618228020141	1105.938480247187	2300.360916935098	45.35456911221377	1213.20493061758	2196.58475403355	1001.806294634887	1131.284462485831	2233.37039263816	169.6728694265706	1197.904816620352	2197.332844756046	197.5819695771867	1168.086091974626	2266.012878683004	240.6681650375348	1221.372237061338	2232.71065655551	266.9906388779186	1187.11674470257	2377.911475937367	550.1891463766345	1244.902635564085	2327.052739848854	539.038224714314	1192.003096200964	2330.759160017006	647.6767032370183	1267.326464004836	2279.908344139768	634.195173593739	1220.694865333418	
566	3.766666666666667	2382.847884826363	931.5773170003325	999.2026875721616	1982.670002280686	587.2784983512333	1074.217002590391	1986.43229971676	559.3401889947824	1024.596485911979	2030.247163541773	569.9029047890862	1069.094460847635	2307.136995082331	1022.364169975583	940.7684305760899	1970.234875495567	355.3567278577399	1090.991315453623	1955.57620611248	399.9546656404303	985.0271624421778	2200.660838882646	991.1672501815119	1044.643104708404	2103.754253516059	500.2280803121413	999.6806266857807	2111.399592720651	539.7115642621421	1031.807879773515	2181.77133704191	498.5523258142345	978.2211321438351	2193.666628744503	538.3951091051689	1011.532983883034	2403.888054696233	512.3071231217587	948.5808961176945	2365.374987176207	513.598972152023	1013.90378687799	2350.826079771979	606.9559292521794	936.193098164718	2312.203414094334	595.0332000717115	991.502516599662	2379.677444179948	963.7350541905291	1208.255003606492	2265.168284669377	86.04632018021964	1144.318862957793	2074.125778894541	52.66053092505499	1135.046989010695	2097.259660658009	64.40599087565346	1175.229874160819	2094.172038472471	100.5825532279922	1134.447149783003	2288.334321542355	1023.711285350772	1264.462973341941	2310.225873367526	52.45820877977949	1106.889932670572	2269.346866176612	44.86864141116196	1213.816672553199	2195.350292206636	1003.064612188067	1131.753402349361	2204.867389024881	169.8005766279833	1198.7132298643	2169.579918369913	198.698610530845	1169.088231258935	2239.524942929756	239.842358956326	1222.152703137363	2206.843748052129	267.1227112851332	1188.032436181661	2361.249978652201	546.8965842893458	1245.375748627144	2309.579217958275	537.5479526958381	1192.75566893017	2317.957584660184	646.2404576713409	1267.574491378811	2266.541168180927	634.7172042934766	1220.998684450216	
